<svg xmlns="http://www.w3.org/2000/svg" width="109.4" height="168.8" viewBox="0 0 109.4 168.8"><path d="M35.9 144.8c0 .1.1.2.5.2.7.1 2.8.1 3.3.1.2 0 .4-.1.4-.2s-.1-.1-.2-.1c-.2 0-.7 0-1.3-.2-.8-.3-1-1.4-1.1-2.1l-1.3-12c0-.4-.1-.5-.2-.5s-.2.1-.3.3L30 142.6l-6-12.3c-.1-.2-.2-.3-.3-.3-.1 0-.2.1-.2.4l-1.4 12.7c-.1.7-.1 1.5-.8 1.6-.3.1-.4.1-.6.1-.1 0-.2 0-.2.1s.1.2.3.2c.5 0 1.5-.1 1.6-.1.2 0 1.1.1 1.8.1.2 0 .4 0 .4-.2 0-.1-.1-.1-.2-.1s-.4 0-.7-.1c-.3-.1-.5-.3-.5-.6v-1l.8-9.1h.1c.2.5 2.4 5.2 2.6 5.6.1.2 1.8 3.6 2.3 4.5.4.7.5.9.6.9.2 0 .2-.2.6-1l4.8-10.2h.1l.9 10.1c0 .4 0 .7-.1.7v.2zm28-8.1l-.5-.4c-1.8-1.5-2.4-2.2-2.4-3.3 0-1.4 1.1-2.3 2.4-2.3 1.8 0 2.3.8 2.4 1 .1.2.2.7.3 1 0 .2 0 .3.2.3.1 0 .1-.1.1-.4 0-1.3.1-2 .1-2.1 0-.1 0-.1-.2-.1s-.3 0-.7-.1c-.5-.1-1.1-.2-1.8-.2-2.5 0-4 1.4-4 3.5 0 1.3.5 2.5 2.5 4.2l.9.7c1.7 1.4 2.2 2.2 2.2 3.5 0 1.3-.9 2.6-2.8 2.6-1.3 0-2.6-.5-2.9-2-.1-.3-.1-.5-.1-.7 0-.2 0-.2-.1-.2s-.1.1-.2.3c0 .3-.1 1.1-.1 2.1 0 .5 0 .6.3.7.8.4 1.7.5 2.6.5 1.1 0 2.1-.2 3-.8 1.3-1 1.7-2.4 1.7-3.2 0-1.6-.6-2.8-2.9-4.6zm10.8-5.6c.2 0 2.3 0 2.7.1 1.1.1 1.3.4 1.4.7.1.2.1.6.1.7 0 .2 0 .3.2.3.1 0 .1-.1.1-.2 0-.2.1-1.1.1-1.3.1-.5.2-.8.2-.9 0-.1 0-.2-.1-.2s-.2.1-.3.1c-.2 0-.5.1-.8.1h-4.5c-.1 0-1.3-.1-2.2-.1-.2 0-.3 0-.3.2 0 .1.1.1.2.1.2 0 .5 0 .7.1.6.1.8.4.8 1.1v7.6c0 1.9 0 3.4-.1 4.2-.1.6-.2 1-.6 1.1-.2 0-.4.1-.6.1-.1 0-.2.1-.2.1 0 .1.1.2.3.2.6 0 1.8-.1 1.9-.1.6 0 1.9.1 4.8.1.8 0 .9 0 1.1-.5.1-.4.3-1.7.3-1.9 0-.1 0-.3-.1-.3s-.1.1-.2.3c-.1.8-.4 1.2-.9 1.4-.5.2-1.4.2-1.9.2-1.9 0-2.2-.3-2.3-1.6v-5c0-.1 0-.1.1-.1.3 0 2.3 0 2.8.1.8.1.9.4 1 .7.1.3.1.4.1.6 0 .1 0 .2.1.2s.1-.2.1-.4c0-.1 0-.9.1-1.3.1-.6.2-1 .2-1.1 0-.1 0-.2-.1-.2s-.2.1-.3.3c-.2.2-.5.2-.9.3h-3.1c-.1 0-.1-.1-.1-.2v-5.4c.1-.2.1-.2.2-.2zm13.8.7c0-.7.2-1 .7-1.1.2 0 .4-.1.5-.1.1 0 .2 0 .2-.1s-.1-.2-.3-.2c-.6 0-1.8.1-1.9.1-.1 0-1.3-.1-2-.1-.2 0-.3 0-.3.2 0 .1.1.1.2.1s.4 0 .6.1c.4.1.6.4.7 1.1v7.6c0 1.9 0 3.4-.1 4.2-.1.6-.2 1-.6 1.1-.2 0-.4.1-.6.1-.1 0-.2.1-.2.1 0 .1.1.2.3.2.6 0 1.8-.1 1.9-.1.1 0 1.3.1 2.4.1.2 0 .3-.1.3-.2s0-.1-.2-.1-.6 0-.9-.1c-.6-.1-.7-.5-.8-1.1-.1-.8-.1-2.4-.1-4.2V136c.2-3.1.2-3.6.2-4.2zm-74.1 22.5c.4-.2.8-.2.9-.2.2 0 .2 0 .2-.1s-.1-.1-.3-.1c-.6 0-1.4.1-1.5.1-.2 0-1.1-.1-1.9-.1-.3 0-.4 0-.4.2 0 .1.1.1.2.1.2 0 .5 0 .7.1.2.1.3.3.3.5s-.1.5-.2.7c-.4 1.4-3 8.2-4.2 10.8l-3.8-10c-.3-.8-.5-1.4-.5-1.6 0-.1 0-.3.3-.4.2-.1.5-.1.7-.1.1 0 .2 0 .2-.1s-.2-.1-.5-.1c-.7 0-1.6.1-1.8.1-.2 0-1.3-.1-2.3-.1-.3 0-.5 0-.5.1s0 .1.2.1c.1 0 .4 0 .7.1.7.2 1 .4 1.4 1.5l4.8 12c.4.9.5 1.2.7 1.2.2 0 .3-.3.8-1.5.4-1 1.3-3.1 2.5-5.9 1-2.4 2-4.8 2.2-5.3.6-1.5.9-1.8 1.1-2zm14.3 14c-.2 0-.5 0-.8-.1-.4-.1-1-.4-1.7-2.2-1.2-3-4.3-11-4.6-11.8-.2-.6-.3-.7-.4-.7s-.2.1-.4.8l-4.4 12.1c-.4 1-.7 1.7-1.6 1.8h-.6c-.1 0-.2 0-.2.1s.1.2.4.2c.9 0 2-.1 2.2-.1.2 0 1.1.1 1.5.1.2 0 .3 0 .3-.2 0-.1-.1-.1-.2-.1H18c-.3 0-.7-.2-.7-.6 0-.4.1-.8.3-1.3l1.2-3.5c0-.1.1-.2.2-.2h4.2c.1 0 .1 0 .2.1l1.8 4.8c.1.3 0 .5-.1.5s-.1.1-.1.1c0 .1.2.1.6.1h3.1c.2 0 .4 0 .4-.2-.2.3-.3.3-.4.3zm-5.8-6.2h-3.7c-.1 0-.1 0-.1-.1l1.7-5.3c.1-.3.2-.3.3 0L23 162s0 .1-.1.1zm17.7-8.5c-.2 0-.7.2-1.9.2h-7.3c-.2 0-1 0-1.5-.1-.5 0-.7-.2-.9-.2-.1 0-.2.3-.2.4 0 .2-.4 1.8-.4 2 0 .1 0 .2.1.2s.1 0 .2-.2c.1-.1.1-.3.3-.6.3-.5.8-.6 2-.6h2.9v8.3c0 1.9 0 3.4-.1 4.2-.1.6-.2 1-.6 1.1-.2 0-.4.1-.6.1-.1 0-.2.1-.2.1 0 .1.1.2.3.2.6 0 1.8-.1 1.9-.1.1 0 1.3.1 2.4.1.2 0 .3-.1.3-.2s0-.1-.2-.1-.6 0-.9-.1c-.6-.1-.7-.5-.8-1.1-.1-.8-.1-2.4-.1-4.2v-8.3h2.5c1.9 0 2.3.5 2.4 1.1v.2c0 .3.1.3.2.3s.1-.1.1-.3c0-.2.1-1.6.1-2.2.1-.1.1-.2 0-.2zm8.6 14.7c-.2 0-.6 0-.9-.1-.6-.1-.7-.5-.8-1.1-.1-.8-.1-2.4-.1-4.2v-7.6c0-.7.2-1 .7-1.1.2 0 .4-.1.5-.1.1 0 .2 0 .2-.1s-.1-.2-.3-.2c-.6 0-1.8.1-1.9.1-.1 0-1.3-.1-2-.1-.2 0-.3 0-.3.2 0 .1.1.1.2.1s.4 0 .6.1c.4.1.6.4.7 1.1v7.6c0 1.9 0 3.4-.1 4.2-.1.6-.2 1-.6 1.1-.2 0-.4.1-.6.1-.1 0-.2.1-.2.1 0 .1.1.2.3.2.6 0 1.8-.1 1.9-.1.1 0 1.3.1 2.4.1.2 0 .3-.1.3-.2.1-.1.1-.1 0-.1zM66 165c-.1 0-.2.1-.2.3-.1.4-.3 1.2-.7 1.6-.8.8-1.9 1-3.4 1-4.2 0-7.1-3.4-7.1-7.2 0-2 .3-3.7 1.8-5.1.7-.7 1.9-1.4 4.5-1.4 1.7 0 3.2.5 3.9 1.1.5.4.8 1.2.8 2 0 .3 0 .4.2.4.1 0 .2-.1.2-.4 0-.3 0-1.4.1-2 0-.7.1-.9.1-1.1 0-.1 0-.2-.3-.2-.6 0-1.2-.2-2-.3-1-.2-2.1-.2-2.8-.2-3 0-4.8.9-6 2.1-1.7 1.7-2.2 4-2.2 5.3 0 1.9.5 4.1 2.4 5.8 1.5 1.4 3.5 2.1 6.5 2.1 1.3 0 2.7-.1 3.5-.5.4-.2.4-.2.5-.6.2-.7.4-2.4.4-2.5-.1-.1-.1-.2-.2-.2zm16.5 3.3c-.2 0-.5 0-.8-.1-.4-.1-1-.4-1.7-2.2-1.2-3-4.3-11-4.6-11.8-.2-.6-.3-.7-.4-.7-.1 0-.2.1-.4.8l-4.4 12.1c-.4 1-.7 1.7-1.6 1.8H68c-.1 0-.2 0-.2.1s.1.2.4.2c.9 0 2-.1 2.2-.1.2 0 1.1.1 1.5.1.2 0 .3 0 .3-.2 0-.1-.1-.1-.2-.1h-.2c-.3 0-.7-.2-.7-.6 0-.4.1-.8.3-1.3l1.2-3.5c0-.1.1-.2.2-.2H77c.1 0 .1 0 .2.1l1.8 4.8c.1.3 0 .5-.1.5s-.1.1-.1.1c0 .1.2.1.6.1h3.1c.2 0 .4 0 .4-.2-.2.3-.3.3-.4.3zm-5.9-6.2h-3.7c-.1 0-.1 0-.1-.1l1.7-5.3c.1-.3.2-.3.3 0l1.9 5.3s0 .1-.1.1zm23-8.3c-.8 0-1.4.1-1.7.1-.2 0-1.2-.1-2-.1-.2 0-.4 0-.4.1s0 .1.2.1.6 0 1 .1c.6.2.7.6.8 1.9l.2 9.9c-.6-.6-2.8-3-4.7-5.1-3-3.2-5.9-6.4-6.2-6.7-.2-.2-.5-.6-.7-.6-.2 0-.2.2-.2 1v11.2c0 1.8-.1 2.3-.6 2.5-.3.1-.6.1-.8.1-.1 0-.2 0-.2.1s.1.2.3.2c.9 0 1.7-.1 1.9-.1.2 0 1 .1 2.1.1.2 0 .4 0 .4-.2 0-.1-.1-.1-.2-.1-.2 0-.6 0-1-.1-.5-.2-.7-.7-.8-2.3l-.3-9.4c.6.7 2.8 3.2 5.1 5.6 2.1 2.2 4.9 5.1 5.1 5.3 1 1 1.3 1.2 1.4 1.2.1 0 .2-.1.2-1.4v-11.5c0-1.2.1-1.6.7-1.7.2-.1.4-.1.5-.1.1 0 .2-.1.2-.1h-.3zm9.7 14.5c-.2 0-.6 0-.9-.1-.6-.1-.7-.5-.8-1.1-.1-.8-.1-2.4-.1-4.2v-7.6c0-.7.2-1 .7-1.1.2 0 .4-.1.5-.1.1 0 .2 0 .2-.1s-.1-.2-.3-.2c-.6 0-1.8.1-1.9.1-.1 0-1.3-.1-2-.1-.2 0-.3 0-.3.2 0 .1.1.1.2.1s.4 0 .6.1c.4.1.6.4.7 1.1v7.6c0 1.9 0 3.4-.1 4.2-.1.6-.2 1-.6 1.1-.2 0-.4.1-.6.1-.1 0-.2.1-.2.1 0 .1.1.2.3.2.6 0 1.8-.1 1.9-.1.1 0 1.3.1 2.4.1.2 0 .3-.1.3-.2.1-.1.1-.1 0-.1zm-53.4-37.5c.4-.2.8-.2.9-.2.2 0 .2 0 .2-.1s-.1-.1-.3-.1c-.6 0-1.4.1-1.5.1-.2 0-1.1-.1-1.9-.1-.3 0-.4 0-.4.2 0 .1.1.1.2.1.2 0 .5 0 .7.1.2.1.3.3.3.5s-.1.5-.2.7c-.4 1.4-3 8.2-4.2 10.8l-3.8-10c-.3-.8-.5-1.4-.5-1.6 0-.1 0-.3.3-.4.2-.1.5-.1.7-.1.1 0 .2 0 .2-.1s-.2-.1-.5-.1c-.7 0-1.6.1-1.8.1-.2 0-1.3-.1-2.3-.1-.3 0-.5 0-.5.1s0 .1.2.1c.1 0 .4 0 .7.1.7.2 1 .4 1.4 1.5l4.8 12c.4.9.5 1.2.7 1.2.2 0 .3-.3.8-1.5.4-1 1.3-3.1 2.5-5.9 1-2.4 2-4.8 2.2-5.3.6-1.5.9-1.8 1.1-2zM48 41.2l.3 1.4h5.5c-.2 2.2-1 5.8-3.6 8.5l2.2 1.9c2.2-2 3.7-5.5 4.2-8.4.5 2.8 2.1 6.3 4.2 8.4l2.2-1.9c-2.6-2.7-3.4-6.2-3.6-8.5h6.1l.3-1.5c0-.1 1.6-7.7 4.2-17.8.7-2.6-1.8-6.2-5.6-9.1-1.6-1.3-3.6-2.6-6-3.6V6.4H61c.6-.9.6-2.3 0-3.2h-2.6V.4c-.9-.6-2.4-.6-3.3 0v2.7h-2.3c-.6.9-.6 2.3 0 3.2h2.3v4.3c-2.9 1.3-5.3 3-7.1 4.6-2.9 2.5-4.8 5.5-4.2 8 2.5 10.5 4.2 18 4.2 18zm8.9-27.4c6.4 2.5 10.1 7.4 9.8 8.6-2 7.8-3.4 14.2-4 17H51.1c-.6-2.7-2.1-9.1-4-17-.3-1.3 3.3-6 9.8-8.6zm11.9 51.7l2.2 1.8c8.9-6.3 4.6-15.5 4.5-15.9l-2.9.6c.1 1.3-1.3 2.9-2.6 3.2-.9.2-2 .1-2.5-.3l-2.2 1.8c1.1 1 3.1 1.2 4.8 1 1.6-.3 2.8-1.1 3.5-2.2.3 2.7-.3 6.6-4.8 10zm-23 17.9l-.3.2 1.3 2.3.3-.1.1.3c3.4-1.7 5.6-5.3 5.6-9.1 0-2.7-1.2-5.2-3.1-7.1l-.2-.2-2.5 2.1.3.2c1.3 1.3 2.4 3.3 2.4 5 0 2.5-1.5 4.9-3.9 6.4zm-2.5-25.7c1.7.2 3.7 0 4.8-1L46 54.9c-.5.4-1.6.6-2.5.3-1.3-.3-2.7-1.8-2.6-3.2l-2.9-.6c-.1.3-4.4 9.6 4.5 15.9l2.2-1.8c-4.5-3.5-5.1-7.3-4.8-10 .6 1.1 1.7 1.9 3.4 2.2zM95 84c1.1-1.4 1.6-3.1 1.6-4.9 0-2.1-.8-4.2-2.4-5.8-1.6-1.6-3.7-2.4-5.8-2.4-2.1 0-4.2.8-5.8 2.4-1.1 1.1-1.8 2.5-2.1 3.9l-21-17h-.1l16.3-13.3 7 8.2-2 1.7 1.3 1.6 6.7-5.4-4.2-5.8-1.9 1.5v-.1l-.9.7-1.4-1.7.9-.8 1.9-1.5-2.3-2.8 1.9-1.5 2.2 2.8 1.7-1.4-.1.1 1-.8 1.4 1.8-.9.8-1.7 1.4 4.5 5.5 7.3-5.9-1.3-1.6-1.8 1.5-6.8-8.5 4.2-3.3c-.1-1.2-1.1-2.4-2.2-2.7L56.7 57.9 24.2 31.4c-1.1.3-2.1 1.5-2.2 2.7l4.2 3.4-6.8 8.5-1.8-1.5-1.3 1.5 7.3 5.9 4.5-5.5-2.6-2.1 1.4-1.8 2.6 2.1 2.2-2.8 1.9 1.5-2.3 2.8 2.8 2.3-1.4 1.7-2.8-2.2-4.2 5.7 6.7 5.4 1.3-1.6-2-1.6 7-8.2L54.1 60 32.2 77.6c-.3-1.6-1-3.2-2.3-4.4-1.6-1.6-3.7-2.4-5.8-2.4-2.1 0-4.2.8-5.8 2.4-1.6 1.6-2.4 3.7-2.4 5.8 0 1.7.5 3.4 1.6 4.9-1 .4-1.9 1-2.6 1.8-1.6 1.6-2.4 3.7-2.4 5.8 0 2.1.8 4.2 2.4 5.8 1.6 1.6 3.7 2.4 5.8 2.4 1.9 0 3.7-.6 5.2-1.9v10.9s2.7-.1 3.6-4.3v-9c1.1.5 2.2.8 3.4.8 2.1 0 4.2-.8 5.8-2.4 1.6-1.6 2.4-3.7 2.4-5.8 0-2.1-.8-4.2-2.4-5.8-1-1-2.3-1.7-3.7-2.1l6.7-5.3 4.7-3.9 8.4-6.8c0 .5.1.3.1.3s1.8.9 3.5 0v-.3l9.3 7.6L78 79.9c-1.6.3-3.1 1-4.3 2.3-1.6 1.6-2.4 3.7-2.4 5.8 0 2.1.8 4.2 2.4 5.8 1.6 1.6 3.7 2.4 5.8 2.4 1.1 0 2.2-.2 3.2-.7v8.7c1 4.2 3.6 4.3 3.6 4.3V97.7c1.6 1.4 3.5 2.1 5.5 2.1 2.1 0 4.2-.8 5.8-2.4 1.6-1.6 2.4-3.7 2.4-5.8 0-2.1-.8-4.2-2.4-5.8-.8-.8-1.7-1.4-2.6-1.8zm-58.4.1c1 1 1.5 2.3 1.5 3.6 0 1.3-.5 2.6-1.5 3.6s-2.3 1.5-3.6 1.5c-1.3 0-2.6-.5-3.6-1.5-.3-.3-.5-.6-.7-.9-.4-.6-1.1-.8-1.7-.6-.7.2-1.1.8-1.1 1.5 0 1.3-.5 2.6-1.5 3.6s-2.3 1.5-3.6 1.5c-1.3 0-2.6-.5-3.6-1.5s-1.5-2.3-1.5-3.6c0-1.3.5-2.6 1.5-3.6s2.3-1.5 3.6-1.5h.1c.7 0 1.3-.5 1.5-1.1.2-.7-.1-1.4-.7-1.7-.4-.2-.7-.5-1-.8-1-1-1.5-2.3-1.5-3.6 0-1.3.5-2.6 1.5-3.6s2.3-1.5 3.6-1.5c1.3 0 2.6.5 3.6 1.5s1.5 2.3 1.5 3.6c0 .7-.2 1.5-.5 2.1-.3.6-.1 1.3.3 1.7.4.4 1.1.6 1.7.3.7-.3 1.4-.5 2.1-.5 1.3 0 2.6.5 3.6 1.5zm58.8 11.1c-1 1-2.3 1.5-3.6 1.5-1.3 0-2.6-.5-3.6-1.5s-1.5-2.3-1.5-3.6c0-.7-.4-1.3-1.1-1.5-.1 0-.3-.1-.4-.1-.5 0-1 .3-1.3.7-.2.3-.4.6-.7.9-1 1-2.3 1.5-3.6 1.5-1.3 0-2.6-.5-3.6-1.5s-1.5-2.3-1.5-3.6c0-1.3.5-2.6 1.5-3.6s2.3-1.5 3.6-1.5c.7 0 1.5.2 2.1.5.6.3 1.3.1 1.7-.3.5-.5.6-1.1.3-1.7-.3-.7-.5-1.4-.5-2.2 0-1.3.5-2.6 1.5-3.6s2.3-1.5 3.6-1.5c1.3 0 2.6.5 3.6 1.5s1.5 2.3 1.5 3.6c0 1.3-.5 2.6-1.5 3.6-.3.3-.7.6-1.1.8-.6.4-.9 1.1-.7 1.7.2.7.8 1.1 1.5 1.1h.1c1.3 0 2.6.5 3.6 1.5s1.5 2.3 1.5 3.6c.2 1.4-.3 2.7-1.4 3.7zM66.3 71.8l-2.5-2.1-.2.2c-1.9 1.9-3.1 4.4-3.1 7.1 0 3.8 2.2 7.4 5.6 9.1l.1-.3.3.1 1.3-2.3-.3-.2c-2.4-1.6-3.9-3.9-3.9-6.4 0-1.8 1.1-3.8 2.4-5l.3-.2z" fill="#7E8083"/></svg>