<svg width="219" height="83" viewBox="0 0 219 83" fill="none" xmlns="http://www.w3.org/2000/svg">
<path d="M138.477 62.756H141.077V71.868L92.599 82.466V0L141.133 10.611V20.248H138.533V12.704L95.199 3.23V79.236L138.477 69.775V62.756Z" fill="white"/>
<path d="M110.474 55.221H104.098V54.332L107.467 50.5889C107.966 50.023 108.309 49.564 108.496 49.212C108.688 48.8555 108.783 48.4879 108.783 48.1091C108.783 47.6012 108.63 47.1845 108.322 46.8592C108.015 46.5339 107.605 46.3713 107.092 46.3713C106.477 46.3713 105.998 46.5473 105.655 46.8993C105.317 47.2469 105.147 47.7326 105.147 48.3565H103.911C103.911 47.4608 104.198 46.7367 104.773 46.1841C105.352 45.6316 106.125 45.3553 107.092 45.3553C107.997 45.3553 108.712 45.5937 109.238 46.0705C109.764 46.5428 110.027 47.1734 110.027 47.9621C110.027 48.9201 109.416 50.0609 108.195 51.3843L105.588 54.2117H110.474V55.221ZM117.887 51.0702C117.887 52.5184 117.64 53.5945 117.145 54.2986C116.65 55.0027 115.877 55.3547 114.826 55.3547C113.787 55.3547 113.019 55.0116 112.52 54.3253C112.021 53.6347 111.762 52.6053 111.744 51.2373V49.5863C111.744 48.1559 111.992 47.0932 112.486 46.398C112.981 45.7029 113.756 45.3553 114.812 45.3553C115.86 45.3553 116.63 45.6917 117.125 46.3646C117.62 47.033 117.874 48.0668 117.887 49.466V51.0702ZM116.65 49.3791C116.65 48.3319 116.503 47.57 116.209 47.0932C115.915 46.6119 115.45 46.3713 114.812 46.3713C114.18 46.3713 113.718 46.6097 113.429 47.0865C113.139 47.5633 112.99 48.2963 112.981 49.2855V51.264C112.981 52.3157 113.132 53.0932 113.435 53.5968C113.743 54.0959 114.206 54.3454 114.826 54.3454C115.436 54.3454 115.888 54.1092 116.183 53.6369C116.481 53.1645 116.637 52.4204 116.65 51.4044V49.3791ZM125.848 55.221H119.471V54.332L122.84 50.5889C123.339 50.023 123.682 49.564 123.869 49.212C124.061 48.8555 124.157 48.4879 124.157 48.1091C124.157 47.6012 124.003 47.1845 123.696 46.8592C123.388 46.5339 122.978 46.3713 122.466 46.3713C121.851 46.3713 121.372 46.5473 121.029 46.8993C120.69 47.2469 120.521 47.7326 120.521 48.3565H119.284C119.284 47.4608 119.571 46.7367 120.146 46.1841C120.726 45.6316 121.499 45.3553 122.466 45.3553C123.37 45.3553 124.085 45.5937 124.611 46.0705C125.137 46.5428 125.4 47.1734 125.4 47.9621C125.4 48.9201 124.789 50.0609 123.569 51.3843L120.962 54.2117H125.848V55.221ZM133.26 51.0702C133.26 52.5184 133.013 53.5945 132.518 54.2986C132.024 55.0027 131.251 55.3547 130.199 55.3547C129.161 55.3547 128.392 55.0116 127.893 54.3253C127.394 53.6347 127.136 52.6053 127.118 51.2373V49.5863C127.118 48.1559 127.365 47.0932 127.86 46.398C128.354 45.7029 129.13 45.3553 130.186 45.3553C131.233 45.3553 132.004 45.6917 132.498 46.3646C132.993 47.033 133.247 48.0668 133.26 49.466V51.0702ZM132.024 49.3791C132.024 48.3319 131.877 47.57 131.583 47.0932C131.289 46.6119 130.823 46.3713 130.186 46.3713C129.553 46.3713 129.092 46.6097 128.802 47.0865C128.512 47.5633 128.363 48.2963 128.354 49.2855V51.264C128.354 52.3157 128.506 53.0932 128.809 53.5968C129.116 54.0959 129.58 54.3454 130.199 54.3454C130.81 54.3454 131.262 54.1092 131.556 53.6369C131.855 53.1645 132.011 52.4204 132.024 51.4044V49.3791Z" fill="white"/>
<path d="M107.76 36.464H105.471V19.1057H107.76V36.464ZM113.697 23.5645L113.768 25.1859C114.754 23.946 116.041 23.3261 117.631 23.3261C120.357 23.3261 121.732 24.864 121.756 27.9398V36.464H119.55V27.9279C119.542 26.998 119.328 26.3105 118.907 25.8654C118.493 25.4204 117.846 25.1978 116.963 25.1978C116.248 25.1978 115.62 25.3886 115.08 25.7701C114.539 26.1516 114.118 26.6523 113.816 27.2722V36.464H111.61V23.5645H113.697ZM127.169 23.5645L127.24 25.1859C128.226 23.946 129.513 23.3261 131.103 23.3261C133.829 23.3261 135.204 24.864 135.228 27.9398V36.464H133.022V27.9279C133.014 26.998 132.8 26.3105 132.378 25.8654C131.965 25.4204 131.317 25.1978 130.435 25.1978C129.72 25.1978 129.092 25.3886 128.551 25.7701C128.011 26.1516 127.59 26.6523 127.288 27.2722V36.464H125.082V23.5645H127.169ZM137.97 29.895C137.97 28.6313 138.216 27.4948 138.709 26.4854C139.21 25.476 139.901 24.6971 140.783 24.1487C141.673 23.6003 142.687 23.3261 143.823 23.3261C145.58 23.3261 146.999 23.9341 148.079 25.1501C149.168 26.3662 149.713 27.9836 149.713 30.0023V30.1573C149.713 31.4131 149.47 32.5417 148.986 33.5431C148.509 34.5366 147.821 35.3115 146.923 35.8679C146.033 36.4242 145.008 36.7024 143.847 36.7024C142.099 36.7024 140.68 36.0944 139.591 34.8784C138.51 33.6623 137.97 32.0529 137.97 30.05V29.895ZM140.187 30.1573C140.187 31.5879 140.517 32.7364 141.177 33.6027C141.844 34.4691 142.735 34.9022 143.847 34.9022C144.968 34.9022 145.858 34.4651 146.518 33.5908C147.177 32.7086 147.507 31.4767 147.507 29.895C147.507 28.4803 147.169 27.3358 146.494 26.4615C145.826 25.5793 144.936 25.1382 143.823 25.1382C142.735 25.1382 141.856 25.5714 141.189 26.4377C140.521 27.304 140.187 28.5439 140.187 30.1573ZM156.544 33.4716L159.739 23.5645H161.992L157.367 36.464H155.686L151.012 23.5645H153.266L156.544 33.4716ZM171.887 36.464C171.76 36.2097 171.657 35.7566 171.578 35.1049C170.552 36.1699 169.328 36.7024 167.906 36.7024C166.634 36.7024 165.589 36.3448 164.77 35.6295C163.959 34.9062 163.554 33.9922 163.554 32.8874C163.554 31.5442 164.063 30.5031 165.08 29.7639C166.105 29.0168 167.544 28.6432 169.396 28.6432H171.542V27.6299C171.542 26.8589 171.311 26.2469 170.85 25.7939C170.389 25.3329 169.71 25.1024 168.812 25.1024C168.025 25.1024 167.365 25.3011 166.833 25.6985C166.3 26.0959 166.034 26.5768 166.034 27.1411H163.816C163.816 26.4973 164.043 25.8774 164.496 25.2813C164.957 24.6772 165.577 24.2004 166.356 23.8506C167.143 23.5009 168.005 23.3261 168.943 23.3261C170.429 23.3261 171.593 23.6996 172.436 24.4467C173.278 25.1859 173.715 26.2072 173.747 27.5107V33.4478C173.747 34.632 173.898 35.5738 174.2 36.2732V36.464H171.887ZM168.227 34.783C168.919 34.783 169.575 34.6042 170.195 34.2465C170.815 33.8889 171.264 33.4239 171.542 32.8517V30.205H169.813C167.111 30.205 165.76 30.9958 165.76 32.5775C165.76 33.2689 165.99 33.8094 166.451 34.1988C166.912 34.5883 167.504 34.783 168.227 34.783ZM180.197 20.441V23.5645H182.605V25.2693H180.197V33.2689C180.197 33.7855 180.304 34.175 180.519 34.4373C180.733 34.6916 181.099 34.8188 181.616 34.8188C181.87 34.8188 182.22 34.7711 182.665 34.6757V36.464C182.085 36.6229 181.52 36.7024 180.972 36.7024C179.986 36.7024 179.243 36.4044 178.743 35.8083C178.242 35.2122 177.991 34.3657 177.991 33.2689V25.2693H175.643V23.5645H177.991V20.441H180.197ZM184.37 29.895C184.37 28.6313 184.616 27.4948 185.109 26.4854C185.61 25.476 186.301 24.6971 187.183 24.1487C188.073 23.6003 189.087 23.3261 190.223 23.3261C191.98 23.3261 193.399 23.9341 194.479 25.1501C195.568 26.3662 196.113 27.9836 196.113 30.0023V30.1573C196.113 31.4131 195.87 32.5417 195.385 33.5431C194.909 34.5366 194.221 35.3115 193.323 35.8679C192.433 36.4242 191.408 36.7024 190.247 36.7024C188.499 36.7024 187.08 36.0944 185.991 34.8784C184.91 33.6623 184.37 32.0529 184.37 30.05V29.895ZM186.587 30.1573C186.587 31.5879 186.917 32.7364 187.577 33.6027C188.244 34.4691 189.134 34.9022 190.247 34.9022C191.368 34.9022 192.258 34.4651 192.918 33.5908C193.577 32.7086 193.907 31.4767 193.907 29.895C193.907 28.4803 193.569 27.3358 192.894 26.4615C192.226 25.5793 191.336 25.1382 190.223 25.1382C189.134 25.1382 188.256 25.5714 187.589 26.4377C186.921 27.304 186.587 28.5439 186.587 30.1573ZM205.114 25.5436C204.78 25.4879 204.418 25.4601 204.029 25.4601C202.582 25.4601 201.601 26.0761 201.084 27.308V36.464H198.879V23.5645H201.025L201.06 25.0548C201.784 23.9023 202.809 23.3261 204.136 23.3261C204.565 23.3261 204.891 23.3817 205.114 23.493V25.5436ZM214.663 33.0424C214.663 32.4463 214.437 31.9853 213.984 31.6595C213.539 31.3257 212.756 31.0395 211.635 30.8011C210.522 30.5627 209.636 30.2765 208.976 29.9427C208.325 29.6089 207.84 29.2115 207.522 28.7505C207.212 28.2896 207.057 27.7412 207.057 27.1053C207.057 26.0482 207.502 25.1541 208.392 24.4229C209.29 23.6917 210.435 23.3261 211.826 23.3261C213.288 23.3261 214.472 23.7036 215.378 24.4587C216.292 25.2137 216.749 26.1794 216.749 27.3557H214.532C214.532 26.7516 214.274 26.231 213.757 25.7939C213.248 25.3568 212.605 25.1382 211.826 25.1382C211.023 25.1382 210.395 25.3131 209.942 25.6628C209.489 26.0125 209.263 26.4695 209.263 27.0338C209.263 27.5663 209.473 27.9677 209.894 28.2379C210.316 28.5081 211.075 28.7664 212.171 29.0128C213.276 29.2592 214.17 29.5533 214.854 29.895C215.537 30.2368 216.042 30.6501 216.368 31.1349C216.702 31.6118 216.869 32.196 216.869 32.8874C216.869 34.0399 216.408 34.9658 215.486 35.6652C214.564 36.3567 213.368 36.7024 211.897 36.7024C210.864 36.7024 209.95 36.5196 209.155 36.154C208.36 35.7884 207.737 35.2797 207.284 34.628C206.838 33.9683 206.616 33.257 206.616 32.494H208.821C208.861 33.2332 209.155 33.8213 209.704 34.2584C210.26 34.6876 210.991 34.9022 211.897 34.9022C212.732 34.9022 213.399 34.7353 213.9 34.4015C214.409 34.0597 214.663 33.6067 214.663 33.0424Z" fill="white"/>
<path d="M2.41295 51.4111V55.221H1.12961V45.489H4.71896C5.78396 45.489 6.61724 45.7608 7.21881 46.3044C7.82483 46.8481 8.12784 47.5677 8.12784 48.4634C8.12784 49.4081 7.83152 50.1366 7.23886 50.6491C6.65066 51.1571 5.80624 51.4111 4.70559 51.4111H2.41295ZM2.41295 50.3617H4.71896C5.40519 50.3617 5.93101 50.2013 6.29641 49.8804C6.6618 49.5551 6.8445 49.0872 6.8445 48.4768C6.8445 47.8975 6.6618 47.4341 6.29641 47.0865C5.93101 46.7389 5.4297 46.5584 4.79249 46.5451H2.41295V50.3617ZM10.9151 55.221H9.67855V44.9543H10.9151V55.221ZM17.3652 55.221C17.2939 55.0784 17.236 54.8244 17.1915 54.459C16.6166 55.0561 15.9304 55.3547 15.1328 55.3547C14.4198 55.3547 13.8338 55.1542 13.3748 54.7531C12.9203 54.3476 12.6931 53.8352 12.6931 53.2158C12.6931 52.4627 12.9783 51.879 13.5486 51.4646C14.1235 51.0457 14.93 50.8363 15.9683 50.8363H17.1714V50.2681C17.1714 49.8359 17.0422 49.4927 16.7837 49.2388C16.5253 48.9803 16.1443 48.8511 15.6408 48.8511C15.1996 48.8511 14.8297 48.9625 14.5312 49.1853C14.2326 49.4081 14.0834 49.6777 14.0834 49.9941H12.8401C12.8401 49.6331 12.9671 49.2855 13.2211 48.9513C13.4796 48.6127 13.8271 48.3453 14.2638 48.1492C14.705 47.9532 15.1885 47.8551 15.7143 47.8551C16.5476 47.8551 17.2004 48.0646 17.6727 48.4835C18.1451 48.8979 18.3901 49.4705 18.408 50.2013V53.5299C18.408 54.1939 18.4926 54.7219 18.662 55.1141V55.221H17.3652ZM15.3132 54.2786C15.7009 54.2786 16.0685 54.1783 16.4161 53.9778C16.7637 53.7772 17.0154 53.5166 17.1714 53.1957V51.7119H16.2022C14.6872 51.7119 13.9296 52.1552 13.9296 53.042C13.9296 53.4297 14.0589 53.7327 14.3173 53.951C14.5758 54.1694 14.9077 54.2786 15.3132 54.2786ZM22.0241 46.2376V47.9888H23.3742V48.9447H22.0241V53.4297C22.0241 53.7193 22.0842 53.9377 22.2045 54.0847C22.3248 54.2273 22.5298 54.2986 22.8195 54.2986C22.962 54.2986 23.1581 54.2719 23.4077 54.2184V55.221C23.0824 55.3101 22.766 55.3547 22.4585 55.3547C21.906 55.3547 21.4893 55.1876 21.2086 54.8534C20.9279 54.5192 20.7875 54.0446 20.7875 53.4297V48.9447H19.4707V47.9888H20.7875V46.2376H22.0241ZM25.4329 55.221V48.9447H24.29V47.9888H25.4329V47.2469C25.4329 46.4715 25.6401 45.8722 26.0546 45.4489C26.469 45.0256 27.0549 44.8139 27.8125 44.8139C28.0977 44.8139 28.3806 44.8518 28.6613 44.9275L28.5945 45.9301C28.3851 45.89 28.1623 45.87 27.9261 45.87C27.525 45.87 27.2154 45.9881 26.997 46.2242C26.7787 46.4559 26.6695 46.7902 26.6695 47.2268V47.9888H28.2135V48.9447H26.6695V55.221H25.4329ZM29.2562 51.5381C29.2562 50.8296 29.3944 50.1924 29.6706 49.6264C29.9514 49.0605 30.339 48.6238 30.8337 48.3164C31.3327 48.0089 31.9009 47.8551 32.5381 47.8551C33.5229 47.8551 34.3183 48.196 34.9243 48.8778C35.5348 49.5596 35.84 50.4664 35.84 51.5982V51.6851C35.84 52.3892 35.7041 53.0219 35.4323 53.5834C35.165 54.1404 34.7795 54.5749 34.276 54.8868C33.7769 55.1987 33.2021 55.3547 32.5515 55.3547C31.5711 55.3547 30.7757 55.0138 30.1653 54.332C29.5592 53.6502 29.2562 52.7479 29.2562 51.625V51.5381ZM30.4995 51.6851C30.4995 52.4872 30.6844 53.1311 31.0542 53.6168C31.4286 54.1025 31.9276 54.3454 32.5515 54.3454C33.1798 54.3454 33.6789 54.1003 34.0487 53.6101C34.4186 53.1155 34.6035 52.4248 34.6035 51.5381C34.6035 50.7449 34.4141 50.1032 34.0353 49.6131C33.661 49.1184 33.162 48.8711 32.5381 48.8711C31.9276 48.8711 31.4352 49.114 31.0609 49.5997C30.6866 50.0854 30.4995 50.7805 30.4995 51.6851ZM40.8865 49.0984C40.6994 49.0672 40.4966 49.0516 40.2783 49.0516C39.4673 49.0516 38.917 49.3969 38.6273 50.0876V55.221H37.3908V47.9888H38.5939L38.6139 48.8243C39.0194 48.1782 39.5943 47.8551 40.3384 47.8551C40.5791 47.8551 40.7618 47.8863 40.8865 47.9487V49.0984ZM43.1925 47.9888L43.226 48.7909C43.7562 48.1671 44.4714 47.8551 45.3715 47.8551C46.3831 47.8551 47.0715 48.2428 47.4369 49.0182C47.6776 48.6706 47.9895 48.3899 48.3727 48.176C48.7604 47.9621 49.2171 47.8551 49.7429 47.8551C51.3293 47.8551 52.1358 48.6951 52.1626 50.375V55.221H50.926V50.4486C50.926 49.9317 50.8079 49.5462 50.5718 49.2922C50.3356 49.0338 49.939 48.9046 49.382 48.9046C48.923 48.9046 48.542 49.0427 48.239 49.319C47.936 49.5908 47.76 49.9584 47.711 50.4218V55.221H46.4677V50.482C46.4677 49.4304 45.9531 48.9046 44.9237 48.9046C44.1127 48.9046 43.5579 49.2499 43.2594 49.9406V55.221H42.0228V47.9888H43.1925Z" fill="white"/>
<path d="M61.168 26.916C60.7329 26.5126 60.2192 26.2034 59.659 26.008C58.3818 25.5847 57.0022 25.5847 55.725 26.008C55.1654 26.2042 54.6522 26.5132 54.217 26.916C53.79 27.318 53.454 27.806 53.233 28.349C53.002 28.9388 52.8905 29.5687 52.905 30.202V34.661C52.905 36.091 53.338 37.215 54.194 38.005C55.05 38.795 56.207 39.185 57.682 39.189C59.158 39.192 60.338 38.785 61.184 38.005C61.1922 37.9934 61.2024 37.9832 61.214 37.975V38.035V38.012L61.63 39.038H62.463V30.202C62.4768 29.5687 62.3653 28.939 62.135 28.349C61.9176 27.8083 61.588 27.3199 61.168 26.916V26.916ZM61.125 34.651C61.1215 35.0388 61.0722 35.4248 60.978 35.801C60.8867 36.1748 60.7128 36.5233 60.469 36.821C60.191 37.151 59.838 37.409 59.439 37.575C58.886 37.795 58.291 37.895 57.696 37.871C57.102 37.8958 56.5096 37.7938 55.958 37.572C55.5612 37.4065 55.2086 37.1507 54.928 36.825C54.6824 36.526 54.5086 36.1747 54.42 35.798C54.3256 35.4229 54.2763 35.0378 54.273 34.651V30.201C54.273 29.172 54.571 28.372 55.164 27.815C55.758 27.257 56.604 26.979 57.696 26.972C58.787 26.966 59.646 27.261 60.236 27.815C60.826 28.369 61.125 29.172 61.125 30.202V34.651V34.651ZM83.175 37.156C82.573 37.692 81.785 37.969 80.981 37.926C80.6605 37.9511 80.3385 37.9054 80.0376 37.7922C79.7367 37.679 79.4644 37.5011 79.24 37.271C78.856 36.825 78.67 36.081 78.67 34.975V27.061H82.873V25.864H78.67V21.844H77.358V35.054C77.358 36.431 77.686 37.474 78.276 38.149C78.866 38.825 79.8 39.179 80.968 39.179C82.135 39.179 83.017 38.89 83.653 38.329L83.174 37.156H83.175ZM71.473 37.844V25.851H66.581V27.031H70.145V37.851H66.581V39.031H74.121C74.161 39.028 74.199 39.022 74.237 39.015V37.864C74.199 37.8566 74.1606 37.8512 74.122 37.848L71.472 37.844H71.473ZM46.903 32.097L42.784 30.962C42.3494 30.844 41.9606 30.5972 41.669 30.254C41.4318 29.9693 41.3 29.6115 41.296 29.241C41.2727 28.8287 41.373 28.4189 41.584 28.064C41.767 27.784 42.022 27.557 42.322 27.408C42.642 27.238 42.989 27.128 43.348 27.08C43.724 27.021 44.105 26.992 44.486 26.992C45.377 26.9496 46.262 27.1585 47.04 27.595C47.65 27.972 47.971 28.605 48.004 29.471V29.507H49.292V29.464C49.256 28.205 48.797 27.248 47.932 26.621C47.066 25.995 45.928 25.71 44.532 25.71C43.9547 25.7081 43.3788 25.7674 42.814 25.887C42.2978 25.9971 41.8071 26.2041 41.368 26.497C40.949 26.777 40.605 27.156 40.364 27.598C40.0983 28.1029 39.9674 28.6677 39.984 29.238C39.9681 29.9032 40.1861 30.5529 40.6 31.074C41.047 31.614 41.66 31.989 42.345 32.139L46.482 33.307C46.96 33.427 47.382 33.707 47.676 34.103C47.925 34.472 48.06 34.905 48.066 35.349C48.087 35.809 47.973 36.265 47.738 36.661C47.539 36.971 47.262 37.225 46.935 37.395C46.5784 37.5716 46.1929 37.6827 45.797 37.723C44.905 37.843 43.999 37.823 43.112 37.667C42.7269 37.5911 42.3583 37.4479 42.023 37.244C41.7326 37.058 41.4909 36.8053 41.318 36.507C41.1303 36.1555 41.0408 35.76 41.059 35.362V35.297H39.748C39.7464 35.32 39.7464 35.343 39.748 35.366C39.774 36.638 40.237 37.596 41.118 38.215C42 38.835 43.141 39.146 44.551 39.146C45.1753 39.1473 45.7982 39.0881 46.411 38.969C46.9666 38.8651 47.4966 38.6534 47.971 38.346C48.4154 38.0374 48.7795 37.627 49.033 37.149C49.303 36.585 49.435 35.965 49.42 35.339C49.4468 34.5896 49.2112 33.8545 48.7539 33.2602C48.2965 32.666 47.6462 32.25 46.915 32.084L46.902 32.097H46.903ZM35.023 26.917C34.5883 26.5133 34.0749 26.2039 33.515 26.008C32.2378 25.5847 30.8582 25.5847 29.581 26.008C29.0214 26.2042 28.5082 26.5132 28.073 26.916C27.6514 27.3188 27.3213 27.8075 27.105 28.349C26.8743 28.9389 26.7631 29.5688 26.778 30.202V34.661C26.778 36.091 27.21 37.215 28.066 38.005C28.922 38.795 30.079 39.185 31.555 39.189C31.941 39.189 32.327 39.157 32.709 39.094H32.739L32.843 39.074L32.958 39.051L33.04 39.031L33.237 38.985H33.259L33.439 38.93H33.473L33.659 38.867C34.0521 38.7257 34.4217 38.5258 34.755 38.274L34.885 38.166L34.909 38.149L35.037 38.035C35.42 37.679 35.725 37.246 35.932 36.765L34.758 36.057C34.6578 36.3495 34.5079 36.6225 34.315 36.864C34.173 37.038 34.005 37.19 33.82 37.316C33.653 37.4324 33.4751 37.5325 33.289 37.615L33.191 37.657L33.148 37.674L33.03 37.716H33C32.8997 37.7465 32.7983 37.7732 32.696 37.796C32.316 37.87 31.929 37.905 31.541 37.9C30.9474 37.9249 30.3553 37.8233 29.804 37.602C29.4071 37.4362 29.0545 37.1801 28.774 36.854C28.53 36.554 28.356 36.204 28.266 35.828C28.1712 35.4526 28.1215 35.0672 28.118 34.68V33.238H36.315V30.202C36.3288 29.5687 36.2173 28.939 35.987 28.349C35.7705 27.8086 35.4419 27.3202 35.023 26.916V26.917ZM34.981 31.835H28.128V30.195C28.128 29.165 28.427 28.365 29.02 27.808C29.614 27.251 30.46 26.972 31.551 26.966C32.643 26.959 33.518 27.254 34.092 27.808C34.666 28.362 34.981 29.166 34.981 30.195V31.835ZM18.545 25.707C18.1677 25.7102 17.7923 25.7596 17.427 25.854C17.0402 25.9393 16.6649 26.0703 16.309 26.244C15.8389 26.4664 15.4159 26.777 15.063 27.159L14.378 25.848H13.758V39.07H15.069V30.168C15.0585 29.724 15.1484 29.2834 15.332 28.879C15.499 28.498 15.742 28.154 16.046 27.869C16.3633 27.5773 16.7375 27.3544 17.145 27.214C17.599 27.054 18.079 26.974 18.561 26.981C19.1489 26.9625 19.7345 27.0639 20.282 27.279C20.678 27.453 21.032 27.709 21.318 28.034C21.561 28.334 21.738 28.683 21.837 29.056C21.927 29.436 21.974 29.824 21.977 30.214V39.066H23.289V30.214C23.289 28.774 22.869 27.654 22.043 26.876C21.217 26.099 20.017 25.706 18.545 25.706V25.707ZM8.92499 26.92C8.49098 26.5157 7.97736 26.2064 7.41699 26.012C6.13902 25.5915 4.75996 25.5915 3.48199 26.012C2.92116 26.2074 2.40674 26.5165 1.97099 26.92C1.54299 27.32 1.20699 27.81 0.98699 28.353C0.75799 28.943 0.64699 29.572 0.65899 30.205V34.661C0.65899 36.094 1.09199 37.218 1.94799 38.008C2.80399 38.798 3.96399 39.185 5.43999 39.188C6.91499 39.188 8.09199 38.788 8.93199 38.008C9.77099 37.228 10.217 36.094 10.217 34.661V30.205C10.2297 29.5722 10.1183 28.943 9.88899 28.353C9.67454 27.8115 9.34571 27.3227 8.92499 26.92V26.92ZM8.88199 34.657C8.87732 35.044 8.828 35.4293 8.73499 35.805C8.64327 36.1802 8.46981 36.5306 8.22699 36.831C7.9455 37.158 7.59187 37.4151 7.19399 37.582C6.64177 37.8014 6.04976 37.9029 5.45599 37.88C4.86155 37.9032 4.26884 37.8017 3.71599 37.582C3.31904 37.4154 2.96638 37.1586 2.68599 36.832C2.44299 36.531 2.26899 36.18 2.17799 35.805C2.08303 35.4296 2.03334 35.0442 2.02999 34.657V30.205C2.02999 29.175 2.32799 28.375 2.92499 27.815C3.52199 27.255 4.36499 26.982 5.45599 26.975C6.54799 26.975 7.40399 27.264 7.98699 27.815C8.57099 28.365 8.88199 29.175 8.88199 30.205V34.657V34.657Z" fill="white"/>
</svg>
